<svg xmlns="http://www.w3.org/2000/svg" version="1.1" xmlns:xlink="http://www.w3.org/1999/xlink" xmlns:svgjs="http://svgjs.dev/svgjs" width="1500" height="1682" viewBox="0 0 1500 1682"><g transform="matrix(1,0,0,1,-2.3364485981305734,0)"><svg viewBox="0 0 321 360" data-background-color="#ffffff" preserveAspectRatio="xMidYMid meet" height="1682" width="1500" xmlns="http://www.w3.org/2000/svg" xmlns:xlink="http://www.w3.org/1999/xlink"><g id="tight-bounds" transform="matrix(1,0,0,1,0.5,0)"><svg viewBox="0 0 320 360" height="360" width="320"><g><svg></svg></g><g><svg viewBox="0 0 320 360" height="360" width="320"><g><path d="M20.961 227.22l3.726 4.658-1.863-6.056c-0.466-2.795-3.726 0.466-1.863 1.398M25.153 224.425c1.397 2.329 2.795 4.658 2.795 6.987 0 3.261 2.795 4.658 5.123 5.589-3.261-3.726-5.124-13.974-7.918-12.576M204.017 26.929c7.918 0 15.371-0.932 23.756 0.931 20.495 5.124 37.729 15.371 49.374 29.811l32.606 52.169c1.397 13.042 4.192 27.482 3.726 43.319 3.261 0 2.795-4.658 6.521-5.59-3.726 9.316-5.59 20.961-6.521 34.469-2.329-7.453 0-18.632 0.466-24.687-3.261 5.124-5.124 1.397-5.124-0.932 0.466-3.726-1.397-3.261-2.795-4.658-5.124-4.658-8.384-9.782-12.11-17.7 2.329-6.055 2.795-14.905-4.658-19.563-2.329-1.397-5.124-3.726-6.521-7.453-1.863-5.124-5.124-11.179-4.193-19.097 0.466-2.329-6.987 5.124-11.179 1.863-18.166-12.576-36.332-27.016-58.224-39.127-11.645 0-20.029-4.192-24.221-9.316-3.726-4.658-0.932-10.713 4.658-11.179 3.261 0 6.987-0.932 9.782 0.932 0.466-1.863 2.329-4.192 4.657-4.192M157.904 16.215l0.932 0.466c4.658 0.932 6.987 7.453 12.11 5.124 0 3.261 0.466 6.521-0.466 8.85-1.397 3.726-5.59 3.726-8.85 3.726-31.208-1.863-49.374 11.179-68.471 22.358-5.124 3.261-10.713 5.59-14.906 9.782-20.029 18.632-41.921 35.866-47.045 70.335l-4.192 38.195c-0.466 4.192-5.124 8.384-4.192 13.508l3.26 22.824c-3.261-3.261-5.124 0.932-4.192 2.795 0.466 1.397 2.329 6.055 5.124 1.863 3.726 6.987 7.453 20.495 12.576 26.55 15.837 18.632 36.332 35.4 53.101 52.169 4.192-0.932 7.453-0.932 8.384-3.727 1.397 2.795-1.397 5.59-3.726 6.056 7.453 4.658 15.837 8.85 27.016 9.781 14.44 0.932 27.948 3.261 40.524 6.522 6.521-1.863 13.042-2.795 20.029-3.261 2.329 0 3.726-3.726 6.521-4.658l0.466-4.658c2.795 4.192 2.329-1.397 0.466-4.192 3.261 2.795 4.192 5.124 5.589 6.987 0-1.397 3.726-6.521 3.727-0.466l0.931-6.055c1.397-0.932 1.863 5.124 3.261 0.931 1.397-4.192 4.192-0.932 6.987-2.329-0.932 1.863-0.466 5.59 2.794 3.261l3.727-3.261c2.329 5.59 6.055 3.261 7.918 2.329 20.495-13.042 40.99-28.413 60.553-43.784l-0.466 6.055 2.329-7.453c2.329 2.329 4.192 0.466 5.124-0.931 2.795-4.658 6.521-9.316 12.577-13.508-7.453 20.029-16.303 35.866-27.482 48.908l-4.658 5.59c0 3.261-0.932 7.453-4.658 7.918-1.863 0.466-5.59-0.932-8.384 1.863-1.397 1.863 3.261 5.59-0.466 2.795-3.261-2.329-6.521 0-10.248 0.932-2.795 0.932 1.863 3.726 2.795 5.589 0.932 1.863 1.863 3.726 1.398 6.056l-5.124-5.59c-6.055 3.261-9.782 9.316-14.906 13.974-2.329 1.863-1.397 5.124-1.397 7.918-3.261 0-6.987-0.932-8.85 0.932-1.397 1.863-0.932 4.658-0.932 7.453-4.658-0.466-5.124-7.453-9.315-6.056-4.192 0.932-8.85 1.397-12.577 3.727 2.795 5.59-4.658 2.329-3.726 3.26-6.987-4.192-13.042-7.453-20.495-4.658-15.837-5.124-35.4-2.795-49.84-0.931 0-2.329 0.466-4.658-0.466-5.124-0.932 2.329-3.726 1.397-3.26 1.397-8.85-6.055-17.7-9.782-27.016-14.905-8.384 0.932-16.303-3.261-18.632-5.59-6.521-6.055-13.974-2.795-20.029-4.192-13.042-3.261-17.7-16.769-19.098-26.084-0.932-4.658-4.658-6.521-6.055-6.056-6.055-19.563-15.371-37.263-22.824-55.429-1.863-4.658-1.397-9.316-1.397-14.44 2.329 0.932 4.658 0.466 4.192-2.794-2.329-15.371-7.918-27.016-13.974-38.195 3.261-15.837 3.726-34.469 11.179-48.443 6.521-12.576 18.632-19.098 27.016-29.811 2.795-3.726 2.795-8.85 5.59-12.11 9.316-9.316 18.632-19.098 28.879-27.482 4.658-3.726 10.247 0 17.234-1.397 2.329-8.384 11.645-15.837 20.495-13.508 3.726 0.932 11.179-8.85 13.508-9.782 3.726-1.397 1.863 3.726 1.863 6.987 8.85-6.987 20.961-10.713 32.14-14.906" fill="#d1cdb6" fill-rule="nonzero" stroke="none" stroke-width="1" stroke-linecap="butt" stroke-linejoin="miter" stroke-miterlimit="10" stroke-dasharray="" stroke-dashoffset="0" font-family="none" font-weight="none" font-size="none" text-anchor="none" style="mix-blend-mode: normal" data-fill-palette-color="tertiary"></path></g><g transform="matrix(1,0,0,1,64,130.31337762948232)"><svg viewBox="0 0 192 99.37324474103534" height="99.37324474103534" width="192"><g><svg viewBox="0 0 192 99.37324474103534" height="99.37324474103534" width="192"><g><svg viewBox="0 0 192 99.37324474103534" height="99.37324474103534" width="192"><g><svg viewBox="0 0 192 99.37324474103534" height="99.37324474103534" width="192"><g id="textblocktransform"><svg viewBox="0 0 192 99.37324474103534" height="99.37324474103534" width="192" id="textblock"><g><svg viewBox="0 0 192 58.604651162790695" height="58.604651162790695" width="192"><g transform="matrix(1,0,0,1,0,0)"><svg width="192" viewBox="1.95 -31.74 134.37 41.019999999999996" height="58.604651162790695" data-palette-color="#928e7c"><path d="M1.95 0L13.92 0Q13.92-1.07 13.13-1.22L13.13-1.22Q12.89-1.27 12.65-1.27L12.65-1.27 10.06-1.27 10.06-12.65 12.6-15.04 24.17 0 30.96 0Q30.96-1.07 30.18-1.22L30.18-1.22Q29.93-1.27 29.69-1.27L29.69-1.27 28.37-1.27 15.63-17.87 24.32-25.98Q26.12-27.69 27.05-27.93L27.05-27.93Q27.49-28.03 27.98-28.03L27.98-28.03Q29.05-28.03 29.2-28.81L29.2-28.81Q29.25-29.05 29.25-29.3L29.25-29.3 20.46-29.3 20.46-28.03 24.37-28.03 10.06-14.84 10.06-28.03 13.92-28.03 13.92-29.3 1.95-29.3 1.95-28.03 5.86-28.03 5.86-1.27 1.95-1.27 1.95 0ZM50.05 0.49L50.05 0.49Q53.81 0.49 54.2-4.05L54.2-4.05Q54.25-4.35 54.25-4.59L54.25-4.59 52.98-4.64Q52.63-1.07 51.07-1.03L51.07-1.03Q49.8-1.12 49.75-3.56L49.75-3.56 49.75-13.87Q49.75-20.85 42.77-21.24L42.77-21.24Q42.33-21.24 41.89-21.24L41.89-21.24Q36.42-21.24 34.57-18.7L34.57-18.7Q33.98-17.87 33.98-17.04L33.98-17.04Q33.98-15.53 35.4-15.28L35.4-15.28Q35.64-15.23 35.89-15.23L35.89-15.23Q37.01-15.23 37.55-16.65L37.55-16.65Q38.23-18.46 38.47-18.8L38.47-18.8Q39.4-20.02 41.35-20.02L41.35-20.02Q45.94-19.73 46.09-14.99L46.09-14.99 46.09-11.91Q34.62-11.91 32.96-7.13L32.96-7.13Q32.66-6.2 32.66-5.13L32.66-5.13Q32.66-1.42 35.94-0.05L35.94-0.05Q37.25 0.49 38.72 0.49L38.72 0.49Q42.28 0.49 44.72-1.95L44.72-1.95Q45.6-2.88 46.04-3.91L46.04-3.91Q46.63 0.44 50.05 0.49ZM40.33-1.46L40.33-1.46Q37.35-1.46 36.67-4.44L36.67-4.44Q36.52-5.13 36.52-5.96L36.52-5.96Q36.52-9.23 40.28-10.11L40.28-10.11Q42.28-10.55 46.09-10.6L46.09-10.6 46.09-6.69Q45.36-3.32 42.53-1.95L42.53-1.95Q41.4-1.46 40.33-1.46ZM66.89-1.22L66.89-1.22 63.37-1.22 63.37-10.94Q63.37-15.38 66.11-18.07L66.11-18.07Q67.18-19.09 67.91-19.14L67.91-19.14Q68.75-19.14 69.43-17.92L69.43-17.92Q70.21-16.55 70.89-16.36L70.89-16.36Q71.19-16.26 71.48-16.26L71.48-16.26Q72.94-16.26 73.33-17.68L73.33-17.68Q73.43-17.97 73.43-18.26L73.43-18.26Q73.43-20.46 71.19-20.95L71.19-20.95Q70.7-21.04 70.26-21.04L70.26-21.04Q67.33-21.04 65.03-18.55L65.03-18.55Q63.96-17.38 63.33-15.92L63.33-15.92 63.13-20.75 56.05-20.75 56.05-19.53 59.71-19.53 59.71-4.15Q59.71-1.9 58.44-1.46L58.44-1.46Q57.71-1.22 56.05-1.22L56.05-1.22 56.05 0 68.11 0Q68.11-1.07 67.38-1.17L67.38-1.17Q67.18-1.22 66.89-1.22ZM85.25-1.22L85.25-1.22 82.61-1.22 82.61-31.74 75.29-31.74 75.29-30.52 78.95-30.52 78.95-4.15Q78.95-1.9 77.68-1.46L77.68-1.46Q76.95-1.22 75.29-1.22L75.29-1.22 75.29 0 86.47 0Q86.47-1.07 85.73-1.17L85.73-1.17Q85.54-1.22 85.25-1.22ZM92.81 7.76L92.81 7.76Q92.03 7.76 91.64 6.59L91.64 6.59Q91.1 5.13 90.62 4.79L90.62 4.79Q90.18 4.49 89.59 4.49L89.59 4.49Q88.03 4.49 87.78 5.86L87.78 5.86Q87.73 6.05 87.73 6.2L87.73 6.2Q87.73 8.06 89.88 8.89L89.88 8.89Q90.86 9.28 91.93 9.28L91.93 9.28Q95.79 9.28 98.62 4.54L98.62 4.54Q99.79 2.64 100.87 0L100.87 0 108.1-17.82Q108.58-19.19 109.17-19.38L109.17-19.38Q109.51-19.48 109.95-19.48L109.95-19.48Q110.93-19.48 111.07-20.02L111.07-20.02Q111.17-20.31 111.17-20.75L111.17-20.75 103.75-20.75 103.75-19.48 107.31-19.48 101.06-3.86 94.37-19.48 97.65-19.48 97.65-20.75 88.12-20.75 88.12-19.48 90.52-19.48 99.31 0Q96.57 6.45 94.18 7.47L94.18 7.47Q93.5 7.76 92.81 7.76ZM122.45-1.22L122.45-1.22 120.25-1.22 120.25-8.45 122.94-10.94 129.82 0 136.32 0Q136.32-1.07 135.58-1.17L135.58-1.17Q135.39-1.22 135.09-1.22L135.09-1.22 133.34-1.22 125.48-13.33 130.07-17.63Q131.77-19.24 132.65-19.43L132.65-19.43Q133.04-19.53 133.53-19.53L133.53-19.53Q134.61-19.53 134.7-20.26L134.7-20.26Q134.75-20.51 134.75-20.75L134.75-20.75 126.45-20.75 126.45-19.53 130.11-19.53 120.25-10.4 120.25-31.74 112.93-31.74 112.93-30.52 116.59-30.52 116.59-4.15Q116.59-1.9 115.32-1.46L115.32-1.46Q114.59-1.22 112.93-1.22L112.93-1.22 112.93 0 123.67 0Q123.67-1.07 122.94-1.17L122.94-1.17Q122.74-1.22 122.45-1.22Z" opacity="1" transform="matrix(1,0,0,1,0,0)" fill="#928e7c" class="wordmark-text-0" data-fill-palette-color="primary" id="text-0"></path></svg></g></svg></g><g transform="matrix(1,0,0,1,0,67.15647627906976)"><svg viewBox="0 0 192 32.21676846196557" height="32.21676846196557" width="192"><g transform="matrix(1,0,0,1,0,0)"><svg width="192" viewBox="-3.3 -46.5 450.18 75.55000000000001" height="32.21676846196557" data-palette-color="#d1cdb6"><path d="M9.25 1.35L9.25 1.35Q6.5 1.35 5.1 0 3.7-1.35 3.7-3.75L3.7-3.75 3.8-4.85Q3.8-5.25 3.6-5.25L3.6-5.25 3.3-5.05Q2.1-3.05 0.8-1.38-0.5 0.3-1.2 1L-1.2 1-1.9 1.65Q-2.6 2.3-2.95 2.3-3.3 2.3-3.3 1.7L-3.3 1.7Q-3.3 0.9-2.8-0.25L-2.8-0.25Q-2.05-1.9-0.73-4.67 0.6-7.45 4.58-14.53 8.55-21.6 12.3-27L12.3-27Q16.1-32.5 18.2-34.5L18.2-34.5Q18.95-35.25 19.35-35.25L19.35-35.25Q19.6-35.25 19.6-34.85L19.6-34.85Q19.6-34.75 19.5-34.15L19.5-34.15Q19.05-32.15 15.95-26.8L15.95-26.8Q9.75-16.7 6.95-10.4L6.95-10.4Q5.1-6.85 5.1-3.85L5.1-3.85Q5.1-2.15 6-1.07 6.9 0 8.5 0L8.5 0Q10.8 0 12.98-1.85 15.15-3.7 16.6-6.3 18.05-8.9 18.95-11.6 19.85-14.3 19.85-16.15L19.85-16.15Q19.85-20.6 15.75-21.55L15.75-21.55Q15.7-21.75 15.7-21.95L15.7-21.95Q15.7-22.55 16.4-22.65L16.4-22.65Q20.25-22.65 23.25-25.53 26.25-28.4 26.25-32.15L26.25-32.15Q26.25-34.25 24.7-35.88 23.15-37.5 18.95-37.5L18.95-37.5Q14.4-37.5 11.6-35 8.8-32.5 8.8-29.3L8.8-29.3Q8.8-28.4 9.15-27.65L9.15-27.65Q9.35-27.25 9.35-27L9.35-27Q9.35-26.7 9.05-26.7L9.05-26.7Q8.8-26.7 8.6-26.8L8.6-26.8Q8.25-26.95 7.75-27.2 7.25-27.45 6.43-28.45 5.6-29.45 5.6-30.65L5.6-30.65Q5.6-33.95 9.65-36.33 13.7-38.7 19.45-38.7L19.45-38.7Q20.05-38.7 20.83-38.65 21.6-38.6 23.35-38.2 25.1-37.8 26.43-37.13 27.75-36.45 28.8-35 29.85-33.55 29.85-31.6L29.85-31.6Q29.85-29.55 28.88-27.83 27.9-26.1 26.28-24.93 24.65-23.75 22.88-23 21.1-22.25 19.2-21.85L19.2-21.85Q18.85-21.7 18.85-21.55L18.85-21.55Q18.85-21.45 19.15-21.3L19.15-21.3Q19.3-21.2 19.6-21.05 19.9-20.9 20.63-20.25 21.35-19.6 21.93-18.82 22.5-18.05 22.95-16.7 23.4-15.35 23.4-13.85L23.4-13.85Q23.4-8.1 19.13-3.38 14.85 1.35 9.25 1.35ZM36.2-16.95L36.2-16.95Q36.8-18.2 36.8-19.15L36.8-19.15Q36.8-19.95 36.3-19.95L36.3-19.95Q36-19.95 35.62-19.78 35.25-19.6 35.05-19.4L35.05-19.4 34.8-19.2Q33.25-17.85 30.92-14.28 28.6-10.7 28.6-9.7L28.6-9.7Q28.6-9.5 28.7-9.5L28.7-9.5Q29-9.5 30.02-10 31.05-10.5 32.97-12.35 34.9-14.2 36.2-16.95ZM33.95-5.5L33.95-5.5Q36.6-7.95 41.55-13.6L41.55-13.6Q41.7-13.75 41.8-13.75 41.9-13.75 41.9-13.55L41.9-13.55Q41.9-12.6 41.15-11.7L41.15-11.7Q37.45-7.6 34.6-4.85L34.6-4.85Q32.5-2.75 29.6-0.83 26.7 1.1 24.8 1.1L24.8 1.1Q22.5 1.1 22.5-2.1L22.5-2.1Q22.5-7.4 26.42-13.2 30.35-19 35.5-21.05L35.5-21.05Q37.65-21.95 39.4-21.95L39.4-21.95Q41.35-21.95 41.35-20.4L41.35-20.4Q41.35-17.5 37.25-13.75 33.15-10 28.05-8.05L28.05-8.05Q27.85-8 27.7-7.7L27.7-7.7Q26.95-5.65 26.95-4.05L26.95-4.05Q26.95-2.25 28.3-2.25L28.3-2.25Q30.45-2.25 33.95-5.5ZM56.54-7.1L56.54-7.1 58.64-11.2Q58.64-11.35 58.54-11.35 58.44-11.35 58.29-11.2L58.29-11.2Q56.44-9.05 54.39-6.98 52.34-4.9 51.24-3.9L51.24-3.9 50.14-2.9Q46.39 0.65 44.84 0.65L44.84 0.65Q44.14 0.65 44.14-0.25L44.14-0.25Q44.14-1.25 44.94-3.28 45.74-5.3 46.54-6.8L46.54-6.8 47.34-8.35Q51.54-16.2 53.54-18.85L53.54-18.85Q54.54-20.15 55.99-21.03 57.44-21.9 58.24-21.9L58.24-21.9Q58.74-21.9 58.74-21.55L58.74-21.55Q58.74-21.35 58.54-21L58.54-21Q58.44-20.8 56.49-17.68 54.54-14.55 53.34-12.3L53.34-12.3Q50.04-6.25 50.04-5.35L50.04-5.35Q50.04-5 50.34-5L50.34-5Q50.79-5 51.89-5.9L51.89-5.9Q55.14-8.7 59.04-13.45L59.04-13.45Q61.19-15.75 63.54-19.45L63.54-19.45Q64.19-20.45 65.47-21.18 66.74-21.9 67.79-21.9L67.79-21.9Q68.24-21.9 68.24-21.5L68.24-21.5 67.84-20.55Q67.14-19.3 64.72-15.08 62.29-10.85 61.99-10.3L61.99-10.3Q61.59-9.55 60.17-7.08 58.74-4.6 58.14-3.55L58.14-3.55Q61.29-6.1 63.34-7.95L63.34-7.95Q65.54-10.25 68.49-13.6L68.49-13.6Q68.64-13.75 68.74-13.75 68.84-13.75 68.84-13.55L68.84-13.55Q68.84-12.6 68.09-11.7L68.09-11.7Q65.89-9.3 64.29-7.6L64.29-7.6Q62.19-5.4 56.79-1.2L56.79-1.2 55.49 1.2Q45.84 18.95 42.19 24.3L42.19 24.3Q41.84 24.85 41.29 25.63 40.74 26.4 39.49 27.73 38.24 29.05 37.49 29.05L37.49 29.05Q36.29 29.05 36.29 25.6L36.29 25.6Q36.29 20.5 39.94 14.5L39.94 14.5Q43.89 8.05 52.14 1.25L52.14 1.25Q53.79-1.75 56.54-7.1ZM41.19 14.4L41.19 14.4Q40.79 15 40.24 15.98 39.69 16.95 38.74 19.33 37.79 21.7 37.79 23.3L37.79 23.3Q37.79 24.15 38.09 24.15L38.09 24.15Q38.34 24.15 38.84 23.68 39.34 23.2 39.69 22.7L39.69 22.7 40.04 22.2Q44.99 14.45 50.79 3.7L50.79 3.7Q44.29 9.4 41.19 14.4ZM85.59-17.6L85.59-17.6Q86.04-17.5 86.04-17.3L86.04-17.3Q86.04-17 85.64-16.6L85.64-16.6Q85.09-16.05 84.02-15.15 82.94-14.25 82.74-14.05L82.74-14.05 82.04-13.1Q80.99-10.15 78.82-6.98 76.64-3.8 73.52-1.4 70.39 1 67.54 1L67.54 1Q63.99 1 63.99-3.35L63.99-3.35Q63.99-7.2 66.49-11.68 68.99-16.15 72.97-19.33 76.94-22.5 80.79-22.5L80.79-22.5Q83.59-22.5 83.59-20.3L83.59-20.3Q83.59-19.1 82.39-17.05L82.39-17.05Q82.34-17 82.34-16.9 82.34-16.8 82.44-16.8L82.44-16.8Q84.29-17.55 85.59-17.6ZM80.84-16.4L80.84-16.4Q81.24-18.15 81.24-19.1L81.24-19.1Q81.24-21.2 79.84-21.2L79.84-21.2Q77.89-21.2 74.99-17.6 72.09-14 70.02-9.5 67.94-5 67.94-2.4L67.94-2.4Q67.94-0.5 69.29-0.5L69.29-0.5Q71.39-0.5 74.32-4.7 77.24-8.9 77.84-13.15L77.84-13.15Q77.79-13.25 77.79-13.45L77.79-13.45Q77.79-14.9 80.39-16.05L80.39-16.05Q80.79-16.2 80.84-16.4ZM91.54-6.65L92.44-8.35 93.99-11Q93.99-11.15 93.89-11.15 93.79-11.15 93.64-11L93.64-11Q91.79-8.85 89.79-6.83 87.79-4.8 86.74-3.85L86.74-3.85 85.64-2.9Q81.74 0.8 80.24 0.8L80.24 0.8Q79.54 0.8 79.54-0.1L79.54-0.1Q79.54-1.1 80.36-3.15 81.19-5.2 82.04-6.8L82.04-6.8 82.84-8.35Q87.04-16.2 89.04-18.85L89.04-18.85Q90.04-20.15 91.49-21.03 92.94-21.9 93.74-21.9L93.74-21.9Q94.24-21.9 94.24-21.55L94.24-21.55Q94.24-21.35 94.04-21L94.04-21Q93.94-20.8 91.99-17.68 90.04-14.55 88.84-12.3L88.84-12.3Q85.54-6.25 85.54-5.35L85.54-5.35Q85.54-5 85.84-5L85.84-5Q86.29-5 87.39-5.9L87.39-5.9Q90.64-8.7 94.54-13.45L94.54-13.45Q96.69-15.75 99.04-19.45L99.04-19.45Q100.64-21.9 103.29-21.9L103.29-21.9Q103.74-21.9 103.74-21.5L103.74-21.5 103.34-20.55Q102.64-19.3 100.21-15.08 97.79-10.85 97.44-10.25L97.44-10.25Q95.39-6.65 95.39-5.5L95.39-5.5Q95.39-5.05 95.69-5.05L95.69-5.05Q96.19-5.05 98.89-7.55L98.89-7.55Q100.99-9.65 104.44-13.6L104.44-13.6Q104.59-13.75 104.69-13.75 104.79-13.75 104.79-13.55L104.79-13.55Q104.79-12.6 104.04-11.7L104.04-11.7Q100.34-7.6 97.49-4.85L97.49-4.85Q95.54-3 93.11-1.15 90.69 0.7 89.59 0.7L89.59 0.7Q88.84 0.7 88.84-0.35L88.84-0.35Q88.84-0.95 89.74-2.95 90.64-4.95 91.54-6.65L91.54-6.65ZM116.44-4.85L116.44-4.85Q110.59 0.65 108.74 0.65L108.74 0.65Q107.89 0.65 107.89-0.25L107.89-0.25Q107.89-0.8 108.14-1.63 108.39-2.45 108.76-3.28 109.14-4.1 109.49-4.8 109.84-5.5 110.19-6.1 110.54-6.7 110.54-6.75L110.54-6.75Q111.29-8.1 112.79-10.53 114.29-12.95 115.19-14.53 116.09-16.1 116.09-16.45L116.09-16.45Q116.09-16.7 115.84-16.7L115.84-16.7 115.14-16.45Q112.84-14.8 109.64-11.33 106.44-7.85 104.39-5.2L104.39-5.2 102.34-2.6Q101.69-1.65 101.19-1.05 100.69-0.45 99.76 0.13 98.84 0.7 97.89 0.7L97.89 0.7Q97.19 0.7 97.19 0.3 97.19-0.1 98.14-2.02 99.09-3.95 100.04-5.7L100.04-5.7 100.99-7.4 105.89-16Q106.64-17.25 107.11-17.93 107.59-18.6 108.44-19.63 109.29-20.65 110.26-21.15 111.24-21.65 112.34-21.75L112.34-21.75Q112.74-21.75 112.74-21.4L112.74-21.4Q112.74-21.1 112.59-20.9L112.59-20.9Q111.44-19.1 109.06-14.95 106.69-10.8 106.04-9.55L106.04-9.55Q105.89-9.25 105.89-9.1L105.89-9.1Q105.89-9 105.99-9 106.09-9 106.49-9.3L106.49-9.3Q107.44-10.4 108.96-12.05 110.49-13.7 114.14-17.03 117.79-20.35 120.14-21.5L120.14-21.5Q120.69-21.75 121.19-21.75L121.19-21.75Q121.89-21.75 121.89-20.95L121.89-20.95Q121.49-18.6 118.04-12.9L118.04-12.9Q114.24-6.65 114.24-5.5L114.24-5.5Q114.24-5.1 114.59-5.1L114.59-5.1Q114.84-5.1 115.16-5.28 115.49-5.45 115.89-5.78 116.29-6.1 116.56-6.35 116.84-6.6 117.29-7.03 117.74-7.45 117.84-7.55L117.84-7.55Q119.94-9.65 123.39-13.6L123.39-13.6Q123.54-13.75 123.64-13.75 123.74-13.75 123.74-13.55L123.74-13.55Q123.74-12.6 122.99-11.7L122.99-11.7Q119.29-7.6 116.44-4.85ZM125.33 1.45L130.38-8.35Q130.58-8.75 130.58-8.9L130.58-8.9 130.08-8.55Q128.53-6.75 126.51-4.85 124.48-2.95 123.23-1.9L123.23-1.9 121.98-0.9Q119.93 0.6 118.88 0.6L118.88 0.6Q117.88 0.6 117.88-0.85L117.88-0.85Q117.88-4.45 120.53-9.35 123.18-14.25 127.41-17.95 131.63-21.65 135.43-21.65L135.43-21.65Q136.18-21.65 136.71-21.48 137.23-21.3 137.46-21.15 137.68-21 137.73-21L137.73-21Q137.83-21 137.98-21.15L137.98-21.15Q138.28-21.55 138.76-22.15 139.23-22.75 140.38-23.78 141.53-24.8 142.23-24.8L142.23-24.8Q142.58-24.8 142.58-24.3L142.58-24.3Q142.58-23.6 141.88-22.2L141.88-22.2Q136.53-12.35 135.38-10.3L135.38-10.3Q134.98-9.55 133.56-7.08 132.13-4.6 131.53-3.55L131.53-3.55Q134.68-6.1 136.73-7.95L136.73-7.95Q138.93-10.25 141.88-13.6L141.88-13.6Q142.03-13.75 142.13-13.75 142.23-13.75 142.23-13.55L142.23-13.55Q142.23-12.6 141.48-11.7L141.48-11.7Q139.28-9.3 137.68-7.6L137.68-7.6Q135.58-5.4 130.18-1.2L130.18-1.2 128.88 1.2Q119.23 18.95 115.58 24.3L115.58 24.3Q115.23 24.85 114.68 25.63 114.13 26.4 112.88 27.73 111.63 29.05 110.88 29.05L110.88 29.05Q109.68 29.05 109.68 25.6L109.68 25.6Q109.68 20.5 113.33 14.5L113.33 14.5Q117.18 8.15 125.33 1.45L125.33 1.45ZM137.03-20L137.03-20Q137.08-20.05 137.08-20.2L137.08-20.2Q137.08-20.55 136.28-20.55L136.28-20.55Q134.28-20.55 131.13-17.45 127.98-14.35 125.68-10.65 123.38-6.95 123.38-5.2L123.38-5.2Q123.38-4.5 123.98-4.5L123.98-4.5Q124.53-4.5 125.38-5.2L125.38-5.2Q126.13-5.85 127.41-7.03 128.68-8.2 131.78-12.05 134.88-15.9 137.03-20ZM114.58 14.4L114.58 14.4Q114.18 15 113.63 15.98 113.08 16.95 112.13 19.33 111.18 21.7 111.18 23.3L111.18 23.3Q111.18 24.15 111.48 24.15L111.48 24.15Q111.73 24.15 112.23 23.68 112.73 23.2 113.08 22.7L113.08 22.7 113.43 22.2Q117.63 15.7 124.03 3.85L124.03 3.85Q117.73 9.3 114.58 14.4ZM150.88-16.95L150.88-16.95Q151.48-18.2 151.48-19.15L151.48-19.15Q151.48-19.95 150.98-19.95L150.98-19.95Q150.68-19.95 150.31-19.78 149.93-19.6 149.73-19.4L149.73-19.4 149.48-19.2Q147.93-17.85 145.61-14.28 143.28-10.7 143.28-9.7L143.28-9.7Q143.28-9.5 143.38-9.5L143.38-9.5Q143.68-9.5 144.71-10 145.73-10.5 147.66-12.35 149.58-14.2 150.88-16.95ZM148.63-5.5L148.63-5.5Q151.28-7.95 156.23-13.6L156.23-13.6Q156.38-13.75 156.48-13.75 156.58-13.75 156.58-13.55L156.58-13.55Q156.58-12.6 155.83-11.7L155.83-11.7Q152.13-7.6 149.28-4.85L149.28-4.85Q147.18-2.75 144.28-0.83 141.38 1.1 139.48 1.1L139.48 1.1Q137.18 1.1 137.18-2.1L137.18-2.1Q137.18-7.4 141.11-13.2 145.03-19 150.18-21.05L150.18-21.05Q152.33-21.95 154.08-21.95L154.08-21.95Q156.03-21.95 156.03-20.4L156.03-20.4Q156.03-17.5 151.93-13.75 147.83-10 142.73-8.05L142.73-8.05Q142.53-8 142.38-7.7L142.38-7.7Q141.63-5.65 141.63-4.05L141.63-4.05Q141.63-2.25 142.98-2.25L142.98-2.25Q145.13-2.25 148.63-5.5ZM164.03-10.35L164.03-10.35Q163.63-10.35 163.63-10.65L163.63-10.65Q163.63-10.8 163.78-11.05L163.78-11.05Q166.73-15.65 166.73-17.35L166.73-17.35Q166.73-17.8 166.38-17.8L166.38-17.8Q164.88-17.8 159.33-11L159.33-11Q157.68-8.9 156.25-6.65 154.83-4.4 154.28-3.2L154.28-3.2 153.68-2.05Q153.08-0.85 151.83 0.18 150.58 1.2 149.23 1.2L149.23 1.2Q148.53 1.2 148.53 0.85L148.53 0.85Q148.53 0.55 148.95-0.4 149.38-1.35 149.98-2.5 150.58-3.65 151.18-4.75 151.78-5.85 152.18-6.6L152.18-6.6 152.63-7.35 157.88-16.5Q160.93-22.25 164.28-22.25L164.28-22.25Q164.73-22.25 164.73-21.9L164.73-21.9Q164.73-21.45 162.55-18.18 160.38-14.9 160.03-14L160.03-14Q159.93-13.7 159.93-13.65L159.93-13.65Q159.93-13.55 160.03-13.55 160.13-13.55 160.38-13.8L160.38-13.8Q164.13-18.05 168.33-21.35L168.33-21.35Q168.58-21.6 169.43-22.08 170.28-22.55 170.93-22.55L170.93-22.55Q171.88-22.55 171.88-20.9L171.88-20.9Q171.88-19.1 170.68-16.6 169.48-14.1 167.43-12.2L167.43-12.2 167.23-12Q167.03-11.85 166.8-11.68 166.58-11.5 166.23-11.25 165.88-11 165.53-10.83 165.18-10.65 164.78-10.5 164.38-10.35 164.03-10.35ZM176.72 0.9L176.72 0.9Q175.87 0.9 175.12 0.75 174.37 0.6 174.02 0.5L174.02 0.5 173.67 0.35Q173.32 0.25 173.32-0.05L173.32-0.05 173.42-0.35Q177.52-10.15 184.62-22.4L184.62-22.4Q184.72-22.6 186.37-25.45 188.02-28.3 188.47-29.08 188.92-29.85 190.42-32.33 191.92-34.8 192.77-36.13 193.62-37.45 194.92-39.4 196.22-41.35 197.42-42.9L197.42-42.9Q198.97-44.85 199.57-44.85L199.57-44.85Q199.82-44.85 199.82-44.45L199.82-44.45Q199.82-43.55 198.12-40.2L198.12-40.2Q195.62-34.9 192.32-29.2L192.32-29.2Q185.77-17.8 184.12-14.8L184.12-14.8 184.12-14.6Q184.12-14.35 184.22-14.35L184.22-14.35Q184.27-14.35 184.52-14.6L184.52-14.6Q185.17-15.45 186.25-16.7 187.32-17.95 189.82-20.05 192.32-22.15 193.87-22.15L193.87-22.15Q195.12-22.15 195.12-20.2L195.12-20.2Q195.12-17.15 193.07-13.05L193.07-13.05Q191.87-10.65 190.22-8.33 188.57-6 186.47-3.88 184.37-1.75 181.82-0.43 179.27 0.9 176.72 0.9ZM189.97-15.6L189.97-15.6Q190.57-17.05 190.57-17.75L190.57-17.75Q190.57-18.4 190.07-18.4L190.07-18.4Q189.67-18.4 188.9-17.8 188.12-17.2 187.57-16.6L187.57-16.6 186.97-16Q184.02-12.55 181.67-8.78 179.32-5 178.47-2.95L178.47-2.95 177.57-0.9Q177.47-0.75 177.47-0.6L177.47-0.6Q177.47-0.35 178.22-0.35L178.22-0.35Q180.42-0.35 183.72-4.48 187.02-8.6 189.97-15.6ZM205.32-16.95L205.32-16.95Q205.92-18.2 205.92-19.15L205.92-19.15Q205.92-19.95 205.42-19.95L205.42-19.95Q205.12-19.95 204.75-19.78 204.37-19.6 204.17-19.4L204.17-19.4 203.92-19.2Q202.37-17.85 200.05-14.28 197.72-10.7 197.72-9.7L197.72-9.7Q197.72-9.5 197.82-9.5L197.82-9.5Q198.12-9.5 199.15-10 200.17-10.5 202.1-12.35 204.02-14.2 205.32-16.95ZM203.07-5.5L203.07-5.5Q205.72-7.95 210.67-13.6L210.67-13.6Q210.82-13.75 210.92-13.75 211.02-13.75 211.02-13.55L211.02-13.55Q211.02-12.6 210.27-11.7L210.27-11.7Q206.57-7.6 203.72-4.85L203.72-4.85Q201.62-2.75 198.72-0.83 195.82 1.1 193.92 1.1L193.92 1.1Q191.62 1.1 191.62-2.1L191.62-2.1Q191.62-7.4 195.55-13.2 199.47-19 204.62-21.05L204.62-21.05Q206.77-21.95 208.52-21.95L208.52-21.95Q210.47-21.95 210.47-20.4L210.47-20.4Q210.47-17.5 206.37-13.75 202.27-10 197.17-8.05L197.17-8.05Q196.97-8 196.82-7.7L196.82-7.7Q196.07-5.65 196.07-4.05L196.07-4.05Q196.07-2.25 197.42-2.25L197.42-2.25Q199.57-2.25 203.07-5.5ZM225.67-7.1L225.67-7.1 227.77-11.2Q227.77-11.35 227.67-11.35 227.57-11.35 227.42-11.2L227.42-11.2Q225.57-9.05 223.52-6.98 221.47-4.9 220.37-3.9L220.37-3.9 219.27-2.9Q215.52 0.65 213.97 0.65L213.97 0.65Q213.27 0.65 213.27-0.25L213.27-0.25Q213.27-1.25 214.07-3.28 214.87-5.3 215.67-6.8L215.67-6.8 216.47-8.35Q220.67-16.2 222.67-18.85L222.67-18.85Q223.67-20.15 225.12-21.03 226.57-21.9 227.37-21.9L227.37-21.9Q227.87-21.9 227.87-21.55L227.87-21.55Q227.87-21.35 227.67-21L227.67-21Q227.57-20.8 225.62-17.68 223.67-14.55 222.47-12.3L222.47-12.3Q219.17-6.25 219.17-5.35L219.17-5.35Q219.17-5 219.47-5L219.47-5Q219.92-5 221.02-5.9L221.02-5.9Q224.27-8.7 228.17-13.45L228.17-13.45Q230.32-15.75 232.67-19.45L232.67-19.45Q233.32-20.45 234.59-21.18 235.87-21.9 236.92-21.9L236.92-21.9Q237.37-21.9 237.37-21.5L237.37-21.5 236.97-20.55Q236.27-19.3 233.84-15.08 231.42-10.85 231.12-10.3L231.12-10.3Q230.72-9.55 229.29-7.08 227.87-4.6 227.27-3.55L227.27-3.55Q230.42-6.1 232.47-7.95L232.47-7.95Q234.67-10.25 237.62-13.6L237.62-13.6Q237.77-13.75 237.87-13.75 237.97-13.75 237.97-13.55L237.97-13.55Q237.97-12.6 237.22-11.7L237.22-11.7Q235.02-9.3 233.42-7.6L233.42-7.6Q231.32-5.4 225.92-1.2L225.92-1.2 224.62 1.2Q214.97 18.95 211.32 24.3L211.32 24.3Q210.97 24.85 210.42 25.63 209.87 26.4 208.62 27.73 207.37 29.05 206.62 29.05L206.62 29.05Q205.42 29.05 205.42 25.6L205.42 25.6Q205.42 20.5 209.07 14.5L209.07 14.5Q213.02 8.05 221.27 1.25L221.27 1.25Q222.92-1.75 225.67-7.1ZM210.32 14.4L210.32 14.4Q209.92 15 209.37 15.98 208.82 16.95 207.87 19.33 206.92 21.7 206.92 23.3L206.92 23.3Q206.92 24.15 207.22 24.15L207.22 24.15Q207.47 24.15 207.97 23.68 208.47 23.2 208.82 22.7L208.82 22.7 209.17 22.2Q214.12 14.45 219.92 3.7L219.92 3.7Q213.42 9.4 210.32 14.4ZM254.71-17.6L254.71-17.6Q255.16-17.5 255.16-17.3L255.16-17.3Q255.16-17 254.76-16.6L254.76-16.6Q254.21-16.05 253.14-15.15 252.06-14.25 251.86-14.05L251.86-14.05 251.16-13.1Q250.11-10.15 247.94-6.98 245.76-3.8 242.64-1.4 239.51 1 236.66 1L236.66 1Q233.11 1 233.11-3.35L233.11-3.35Q233.11-7.2 235.61-11.68 238.11-16.15 242.09-19.33 246.06-22.5 249.91-22.5L249.91-22.5Q252.71-22.5 252.71-20.3L252.71-20.3Q252.71-19.1 251.51-17.05L251.51-17.05Q251.46-17 251.46-16.9 251.46-16.8 251.56-16.8L251.56-16.8Q253.41-17.55 254.71-17.6ZM249.96-16.4L249.96-16.4Q250.36-18.15 250.36-19.1L250.36-19.1Q250.36-21.2 248.96-21.2L248.96-21.2Q247.01-21.2 244.11-17.6 241.21-14 239.14-9.5 237.06-5 237.06-2.4L237.06-2.4Q237.06-0.5 238.41-0.5L238.41-0.5Q240.51-0.5 243.44-4.7 246.36-8.9 246.96-13.15L246.96-13.15Q246.91-13.25 246.91-13.45L246.91-13.45Q246.91-14.9 249.51-16.05L249.51-16.05Q249.91-16.2 249.96-16.4ZM260.66-6.65L261.56-8.35 263.11-11Q263.11-11.15 263.01-11.15 262.91-11.15 262.76-11L262.76-11Q260.91-8.85 258.91-6.83 256.91-4.8 255.86-3.85L255.86-3.85 254.76-2.9Q250.86 0.8 249.36 0.8L249.36 0.8Q248.66 0.8 248.66-0.1L248.66-0.1Q248.66-1.1 249.49-3.15 250.31-5.2 251.16-6.8L251.16-6.8 251.96-8.35Q256.16-16.2 258.16-18.85L258.16-18.85Q259.16-20.15 260.61-21.03 262.06-21.9 262.86-21.9L262.86-21.9Q263.36-21.9 263.36-21.55L263.36-21.55Q263.36-21.35 263.16-21L263.16-21Q263.06-20.8 261.11-17.68 259.16-14.55 257.96-12.3L257.96-12.3Q254.66-6.25 254.66-5.35L254.66-5.35Q254.66-5 254.96-5L254.96-5Q255.41-5 256.51-5.9L256.51-5.9Q259.76-8.7 263.66-13.45L263.66-13.45Q265.81-15.75 268.16-19.45L268.16-19.45Q269.76-21.9 272.41-21.9L272.41-21.9Q272.86-21.9 272.86-21.5L272.86-21.5 272.46-20.55Q271.76-19.3 269.34-15.08 266.91-10.85 266.56-10.25L266.56-10.25Q264.51-6.65 264.51-5.5L264.51-5.5Q264.51-5.05 264.81-5.05L264.81-5.05Q265.31-5.05 268.01-7.55L268.01-7.55Q270.11-9.65 273.56-13.6L273.56-13.6Q273.71-13.75 273.81-13.75 273.91-13.75 273.91-13.55L273.91-13.55Q273.91-12.6 273.16-11.7L273.16-11.7Q269.46-7.6 266.61-4.85L266.61-4.85Q264.66-3 262.24-1.15 259.81 0.7 258.71 0.7L258.71 0.7Q257.96 0.7 257.96-0.35L257.96-0.35Q257.96-0.95 258.86-2.95 259.76-4.95 260.66-6.65L260.66-6.65ZM281.36-10.35L281.36-10.35Q280.96-10.35 280.96-10.65L280.96-10.65Q280.96-10.8 281.11-11.05L281.11-11.05Q284.06-15.65 284.06-17.35L284.06-17.35Q284.06-17.8 283.71-17.8L283.71-17.8Q282.21-17.8 276.66-11L276.66-11Q275.01-8.9 273.58-6.65 272.16-4.4 271.61-3.2L271.61-3.2 271.01-2.05Q270.41-0.85 269.16 0.18 267.91 1.2 266.56 1.2L266.56 1.2Q265.86 1.2 265.86 0.85L265.86 0.85Q265.86 0.55 266.28-0.4 266.71-1.35 267.31-2.5 267.91-3.65 268.51-4.75 269.11-5.85 269.51-6.6L269.51-6.6 269.96-7.35 275.21-16.5Q278.26-22.25 281.61-22.25L281.61-22.25Q282.06-22.25 282.06-21.9L282.06-21.9Q282.06-21.45 279.88-18.18 277.71-14.9 277.36-14L277.36-14Q277.26-13.7 277.26-13.65L277.26-13.65Q277.26-13.55 277.36-13.55 277.46-13.55 277.71-13.8L277.71-13.8Q281.46-18.05 285.66-21.35L285.66-21.35Q285.91-21.6 286.76-22.08 287.61-22.55 288.26-22.55L288.26-22.55Q289.21-22.55 289.21-20.9L289.21-20.9Q289.21-19.1 288.01-16.6 286.81-14.1 284.76-12.2L284.76-12.2 284.56-12Q284.36-11.85 284.13-11.68 283.91-11.5 283.56-11.25 283.21-11 282.86-10.83 282.51-10.65 282.11-10.5 281.71-10.35 281.36-10.35ZM295.21-5.7L295.21-5.7Q294.31-3.25 292.36-1.58 290.41 0.1 288.73 0.7 287.06 1.3 285.71 1.3L285.71 1.3Q282.06 1.3 282.06-1.55L282.06-1.55Q282.06-4.45 285.26-6.8L285.26-6.8Q286.76-7.9 288.51-8.25L288.51-8.25Q288.76-8.25 288.76-8.05L288.76-8.05Q288.76-7.95 288.66-7.85L288.66-7.85Q287.41-6.9 286.28-4.9 285.16-2.9 285.16-1.4 285.16 0.1 286.41 0.1L286.41 0.1Q287.41 0.1 288.38-0.73 289.36-1.55 289.86-2.4L289.86-2.4 290.36-3.2Q291.36-4.8 292.03-8.3 292.71-11.8 292.91-14.5L292.91-14.5 293.06-17.2Q293.06-17.6 292.91-17.6L292.91-17.6 292.71-17.5 287.76-11.7Q287.21-11.05 287.01-11.05L287.01-11.05Q286.76-11.05 286.76-11.4L286.76-11.4Q286.76-12.05 287.11-12.4L287.11-12.4 287.56-12.95Q293.26-19.35 294.06-20.7L294.06-20.7Q294.81-21.85 296.26-22.7L296.26-22.7Q297.66-23.5 299.56-23.5L299.56-23.5Q300.06-23.5 300.06-23.1L300.06-23.1Q300.06-22.85 299.66-22.65L299.66-22.65Q299.51-22.6 299.28-22.43 299.06-22.25 298.48-21.6 297.91-20.95 297.46-20.1 297.01-19.25 296.66-17.73 296.31-16.2 296.31-14.35L296.31-14.35Q296.31-8.6 295.21-5.7ZM310.8-16.95L310.8-16.95Q311.4-18.2 311.4-19.15L311.4-19.15Q311.4-19.95 310.9-19.95L310.9-19.95Q310.6-19.95 310.23-19.78 309.85-19.6 309.65-19.4L309.65-19.4 309.4-19.2Q307.85-17.85 305.53-14.28 303.2-10.7 303.2-9.7L303.2-9.7Q303.2-9.5 303.3-9.5L303.3-9.5Q303.6-9.5 304.63-10 305.65-10.5 307.58-12.35 309.5-14.2 310.8-16.95ZM308.55-5.5L308.55-5.5Q311.2-7.95 316.15-13.6L316.15-13.6Q316.3-13.75 316.4-13.75 316.5-13.75 316.5-13.55L316.5-13.55Q316.5-12.6 315.75-11.7L315.75-11.7Q312.05-7.6 309.2-4.85L309.2-4.85Q307.1-2.75 304.2-0.83 301.3 1.1 299.4 1.1L299.4 1.1Q297.1 1.1 297.1-2.1L297.1-2.1Q297.1-7.4 301.03-13.2 304.95-19 310.1-21.05L310.1-21.05Q312.25-21.95 314-21.95L314-21.95Q315.95-21.95 315.95-20.4L315.95-20.4Q315.95-17.5 311.85-13.75 307.75-10 302.65-8.05L302.65-8.05Q302.45-8 302.3-7.7L302.3-7.7Q301.55-5.65 301.55-4.05L301.55-4.05Q301.55-2.25 302.9-2.25L302.9-2.25Q305.05-2.25 308.55-5.5ZM325.95-24.35L325.95-24.35Q329.5-26.85 332.33-30.03 335.15-33.2 336.63-35.88 338.1-38.55 338.85-40.5 339.6-42.45 339.6-43.3L339.6-43.3Q339.6-43.8 339.25-43.8L339.25-43.8Q338.55-43.8 337.55-42.8L337.55-42.8Q335.65-40.9 333.25-37.3 330.85-33.7 329.38-31.13 327.9-28.55 325.55-24.25L325.55-24.25Q325.75-24.25 325.95-24.35ZM320.6-7.55L320.6-7.55Q322.7-9.65 326.15-13.6L326.15-13.6Q326.3-13.75 326.4-13.75 326.5-13.75 326.5-13.55L326.5-13.55Q326.5-12.6 325.75-11.7L325.75-11.7Q322.05-7.6 319.2-4.85L319.2-4.85Q312.95 1.05 311.25 1.05L311.25 1.05Q310.5 1.05 310.5 0L310.5 0Q310.5-0.55 310.63-1.2 310.75-1.85 311.05-2.63 311.35-3.4 311.58-3.93 311.8-4.45 312.23-5.43 312.65-6.4 312.8-6.75L312.8-6.75Q314.2-9.9 321.4-23.35L321.4-23.35Q331.25-41.3 339.5-45.4L339.5-45.4Q340.7-46 341.9-46L341.9-46Q343.3-46 343.3-44.7L343.3-44.7Q343.3-41.7 341.25-38.13 339.2-34.55 336.25-31.55 333.3-28.55 330.48-26.3 327.65-24.05 325.6-22.9L325.6-22.9Q325.3-22.8 325.05-22.45L325.05-22.45Q322.85-18.9 320.75-14.83 318.65-10.75 317.6-8.4L317.6-8.4 316.6-6.1Q316.35-5.35 316.35-5.1L316.35-5.1Q316.35-4.65 316.7-4.65L316.7-4.65Q317.7-4.65 320.6-7.55ZM329.8-20.2L328.6-20.5Q328.3-20.65 328.3-20.85L328.3-20.85Q328.3-21.15 328.85-21.15L328.85-21.15 330.35-21.15Q335.55-29.55 338.85-33.45L338.85-33.45Q342.3-37.45 345.7-39.43 349.1-41.4 350.95-41.4L350.95-41.4Q352.15-41.4 352.15-40.35L352.15-40.35Q352.15-38.05 349.77-35.68 347.4-33.3 345.75-32.6L345.75-32.6Q345.45-32.5 345.35-32.5L345.35-32.5Q345.15-32.5 345.15-32.75L345.15-32.75Q345.15-32.9 345.3-33.15L345.3-33.15Q348.2-37.4 348.2-38.8L348.2-38.8Q348.2-39.15 347.9-39.15L347.9-39.15Q347.3-39.15 345.9-38.05L345.9-38.05Q342.5-35.5 334-21.15L334-21.15 337.85-21.15Q338.55-21.15 338.55-20.95L338.55-20.95Q338.55-20.7 338.17-20.4 337.8-20.1 337.6-20.1L337.6-20.1 334.05-20.1Q333.35-20.1 333.35-19.75L333.35-19.75Q333.35-19.6 333.42-18.9 333.5-18.2 333.5-17.8L333.5-17.8Q333.5-13.15 330.67-6.63 327.85-0.1 323.35 5.9L323.35 5.9Q320.75 9.35 318.55 11.6 316.35 13.85 315.22 14.58 314.1 15.3 313.55 15.3L313.55 15.3Q312.85 15.3 312.85 14.35L312.85 14.35Q312.85 9.75 322.4-7.1L322.4-7.1Q322.4-7.15 323.35-8.9 324.3-10.65 326.12-13.93 327.95-17.2 329.8-20.2L329.8-20.2ZM332.15-16.4L332.15-16.4Q332.15-17.1 332-17.7L332-17.7Q324.1-4.1 321 2.45L321 2.45Q318.15 8.35 318.15 9.35L318.15 9.35Q318.15 9.55 318.3 9.55L318.3 9.55Q319 9.55 321.75 6.3L321.75 6.3Q324.65 2.9 328.4-4.45 332.15-11.8 332.15-16.4ZM362.64-9.55L362.39-9.4Q359.64-6 357.32-3.48 354.99-0.95 354.04-0.1L354.04-0.1 353.09 0.7Q352.29 1.35 351.84 1.35L351.84 1.35Q351.29 1.35 351.29 0.45L351.29 0.45Q351.29-1.7 353.59-9.1L353.59-9.1 353.29-8.95Q350.74-5.8 348.52-3.38 346.29-0.95 345.34-0.1L345.34-0.1 344.39 0.7Q343.59 1.35 343.14 1.35L343.14 1.35Q342.59 1.35 342.59 0.45L342.59 0.45Q342.59-2.05 344.79-8.72 346.99-15.4 349.09-19.35L349.09-19.35Q349.64-20.4 350.69-21.15 351.74-21.9 352.94-21.9L352.94-21.9Q353.29-21.9 353.29-21.6 353.29-21.3 352.89-20.5L352.89-20.5Q351.49-17.6 349.44-12.13 347.39-6.65 347.39-4.55L347.39-4.55Q347.39-4.3 347.49-4.3L347.49-4.3Q347.69-4.3 348.19-4.85L348.19-4.85Q348.79-5.4 349.74-6.35 350.69-7.3 352.64-9.73 354.59-12.15 355.39-14L355.39-14 357.79-19.35Q358.59-20.65 359.62-21.28 360.64-21.9 361.44-21.9L361.44-21.9Q362.04-21.9 362.04-21.6L362.04-21.6Q362.04-21.4 361.59-20.5L361.59-20.5Q357.24-11.45 356.14-5.05L356.14-5.05Q356.09-4.85 356.09-4.65L356.09-4.65Q356.09-4.35 356.24-4.35L356.24-4.35Q356.59-4.35 358.74-6.68 360.89-9 361.64-10.2L361.64-10.2Q361.74-10.4 361.74-10.6L361.74-10.6Q361.54-11.05 361.54-11.8L361.54-11.8Q361.54-14.8 364.57-18.48 367.59-22.15 370.69-23.3L370.69-23.3Q370.99-23.4 371.09-23.4L371.09-23.4Q371.39-23.4 371.39-23.15L371.39-23.15Q371.34-21.75 363.84-11.1L363.84-11.1Q363.69-10.9 363.69-10.8L363.69-10.8Q363.69-10.6 363.84-10.55L363.84-10.55Q364.44-10.25 365.04-10.25L365.04-10.25Q367.29-10.25 370.44-14L370.44-14Q370.54-14.1 370.59-14.1L370.59-14.1Q370.84-14.1 370.84-13.55 370.84-13 369.64-11.65L369.64-11.65Q367.44-9.15 364.59-9.15L364.59-9.15Q363.59-9.15 362.64-9.55L362.64-9.55ZM372.19-4.85L372.19-4.85Q366.34 0.65 364.69 0.65L364.69 0.65Q363.84 0.65 363.84-0.5 363.84-1.65 364.74-3.85 365.64-6.05 366.54-7.7L366.54-7.7 367.44-9.3Q371.24-15.95 373.19-18.85L373.19-18.85Q374.04-20.1 375.37-20.98 376.69-21.85 377.84-21.85L377.84-21.85Q378.24-21.85 378.24-21.5L378.24-21.5Q378.24-21.25 377.89-20.55L377.89-20.55Q377.29-19.45 374.94-15.3 372.59-11.15 372.14-10.3L372.14-10.3Q370.09-6.7 370.09-5.5L370.09-5.5Q370.09-5.05 370.39-5.05L370.39-5.05Q370.89-5.05 373.59-7.55L373.59-7.55Q375.69-9.65 379.14-13.6L379.14-13.6Q379.29-13.75 379.39-13.75 379.49-13.75 379.49-13.55L379.49-13.55Q379.49-12.6 378.74-11.7L378.74-11.7Q375.04-7.6 372.19-4.85ZM378.84-24.7L378.84-24.7Q377.59-24.7 377.59-26.2L377.59-26.2Q377.59-27.6 378.64-29.03 379.69-30.45 380.94-30.45L380.94-30.45Q382.44-30.45 382.44-28.75L382.44-28.75Q382.44-27.35 381.29-26.03 380.14-24.7 378.84-24.7ZM383.09-7.55L383.09-7.55Q385.19-9.65 388.64-13.6L388.64-13.6Q388.79-13.75 388.89-13.75 388.99-13.75 388.99-13.55L388.99-13.55Q388.99-12.6 388.24-11.7L388.24-11.7Q384.54-7.6 381.69-4.85L381.69-4.85Q375.69 0.95 373.74 0.95L373.74 0.95Q373.04 0.95 373.04 0.05L373.04 0.05Q373.04-1 373.84-3.1 374.64-5.2 375.44-6.8L375.44-6.8 376.24-8.35Q377.39-10.4 380.04-15.35 382.69-20.3 385.16-24.7 387.64-29.1 389.84-32.65L389.84-32.65 385.89-32.65Q385.39-32.65 385.39-32.9 385.39-33.15 385.79-33.4 386.19-33.65 386.64-33.65L386.64-33.65Q387.74-33.65 390.49-33.7L390.49-33.7Q392.94-37.55 394.69-39.8L394.69-39.8Q396.24-41.75 396.84-41.75L396.84-41.75Q397.19-41.75 397.19-41.3L397.19-41.3Q397.19-40.25 395.29-36.8L395.29-36.8 393.59-33.7 398.74-33.7Q399.19-33.7 399.19-33.45L399.19-33.45Q399.19-32.65 397.74-32.65L397.74-32.65 393.04-32.65Q381.49-10.75 380.89-9.7L380.89-9.7Q378.79-5.85 378.79-4.7L378.79-4.7Q378.79-4.35 379.04-4.35L379.04-4.35Q379.74-4.35 383.09-7.55ZM401.89-7.55L401.89-7.55Q403.99-9.65 407.44-13.6L407.44-13.6Q407.59-13.75 407.69-13.75 407.79-13.75 407.79-13.55L407.79-13.55Q407.79-12.6 407.04-11.7L407.04-11.7Q403.34-7.6 400.49-4.85L400.49-4.85Q394.49 0.7 392.59 0.7L392.59 0.7Q391.84 0.7 391.84-0.25L391.84-0.25Q391.84-2.05 393.89-5.73 395.94-9.4 397.96-12.58 399.99-15.75 399.99-16.3L399.99-16.3Q399.99-16.6 399.69-16.6L399.69-16.6Q398.49-16.6 395.14-12.9 391.79-9.2 389.49-6.25L389.49-6.25Q386.94-3.05 385.06-1.15 383.19 0.75 382.59 1L382.59 1 381.94 1.3Q381.49 1.3 381.49 0.8L381.49 0.8Q381.49 0 382.39-2.05 383.29-4.1 384.19-5.75L384.19-5.75 385.09-7.4 392.89-21.4Q402.09-37.65 407.39-44.5L407.39-44.5Q408.89-46.5 409.49-46.5L409.49-46.5Q409.79-46.5 409.79-46.1L409.79-46.1Q409.79-45.05 408.19-41.8L408.19-41.8Q400.34-27.65 397.29-22.2L397.29-22.2Q395.44-18.9 393.94-16.32 392.44-13.75 391.81-12.7 391.19-11.65 390.74-10.88 390.29-10.1 390.04-9.55L390.04-9.55Q389.99-9.4 389.99-9.25L389.99-9.25Q389.99-9 390.09-9 390.19-9 390.49-9.3L390.49-9.3Q401.69-21.75 405.19-21.75L405.19-21.75Q405.89-21.75 405.89-21.05L405.89-21.05Q405.89-20.85 405.69-20.18 405.49-19.5 404.54-17.45 403.59-15.4 402.04-12.9L402.04-12.9Q401.09-11.5 399.64-8.9 398.19-6.3 398.19-5.5L398.19-5.5Q398.19-5.05 398.64-5.05L398.64-5.05Q398.79-5.05 399.06-5.18 399.34-5.3 399.69-5.6 400.04-5.9 400.31-6.15 400.59-6.4 401.11-6.88 401.64-7.35 401.89-7.55ZM422.08-6.65L422.98-8.35 424.53-11Q424.53-11.15 424.43-11.15 424.33-11.15 424.18-11L424.18-11Q422.33-8.85 420.33-6.83 418.33-4.8 417.28-3.85L417.28-3.85 416.18-2.9Q412.28 0.8 410.78 0.8L410.78 0.8Q410.08 0.8 410.08-0.1L410.08-0.1Q410.08-1.1 410.91-3.15 411.73-5.2 412.58-6.8L412.58-6.8 413.38-8.35Q417.58-16.2 419.58-18.85L419.58-18.85Q420.58-20.15 422.03-21.03 423.48-21.9 424.28-21.9L424.28-21.9Q424.78-21.9 424.78-21.55L424.78-21.55Q424.78-21.35 424.58-21L424.58-21Q424.48-20.8 422.53-17.68 420.58-14.55 419.38-12.3L419.38-12.3Q416.08-6.25 416.08-5.35L416.08-5.35Q416.08-5 416.38-5L416.38-5Q416.83-5 417.93-5.9L417.93-5.9Q421.18-8.7 425.08-13.45L425.08-13.45Q427.23-15.75 429.58-19.45L429.58-19.45Q431.18-21.9 433.83-21.9L433.83-21.9Q434.28-21.9 434.28-21.5L434.28-21.5 433.88-20.55Q433.18-19.3 430.76-15.08 428.33-10.85 427.98-10.25L427.98-10.25Q425.93-6.65 425.93-5.5L425.93-5.5Q425.93-5.05 426.23-5.05L426.23-5.05Q426.73-5.05 429.43-7.55L429.43-7.55Q431.53-9.65 434.98-13.6L434.98-13.6Q435.13-13.75 435.23-13.75 435.33-13.75 435.33-13.55L435.33-13.55Q435.33-12.6 434.58-11.7L434.58-11.7Q430.88-7.6 428.03-4.85L428.03-4.85Q426.08-3 423.66-1.15 421.23 0.7 420.13 0.7L420.13 0.7Q419.38 0.7 419.38-0.35L419.38-0.35Q419.38-0.95 420.28-2.95 421.18-4.95 422.08-6.65L422.08-6.65ZM442.03-5.7L442.03-5.7Q441.13-3.25 439.18-1.58 437.23 0.1 435.55 0.7 433.88 1.3 432.53 1.3L432.53 1.3Q428.88 1.3 428.88-1.55L428.88-1.55Q428.88-4.45 432.08-6.8L432.08-6.8Q433.58-7.9 435.33-8.25L435.33-8.25Q435.58-8.25 435.58-8.05L435.58-8.05Q435.58-7.95 435.48-7.85L435.48-7.85Q434.23-6.9 433.1-4.9 431.98-2.9 431.98-1.4 431.98 0.1 433.23 0.1L433.23 0.1Q434.23 0.1 435.2-0.73 436.18-1.55 436.68-2.4L436.68-2.4 437.18-3.2Q438.18-4.8 438.85-8.3 439.53-11.8 439.73-14.5L439.73-14.5 439.88-17.2Q439.88-17.6 439.73-17.6L439.73-17.6 439.53-17.5 434.58-11.7Q434.03-11.05 433.83-11.05L433.83-11.05Q433.58-11.05 433.58-11.4L433.58-11.4Q433.58-12.05 433.93-12.4L433.93-12.4 434.38-12.95Q440.08-19.35 440.88-20.7L440.88-20.7Q441.63-21.85 443.08-22.7L443.08-22.7Q444.48-23.5 446.38-23.5L446.38-23.5Q446.88-23.5 446.88-23.1L446.88-23.1Q446.88-22.85 446.48-22.65L446.48-22.65Q446.33-22.6 446.1-22.43 445.88-22.25 445.3-21.6 444.73-20.95 444.28-20.1 443.83-19.25 443.48-17.73 443.13-16.2 443.13-14.35L443.13-14.35Q443.13-8.6 442.03-5.7Z" opacity="1" transform="matrix(1,0,0,1,0,0)" fill="#d1cdb6" class="slogan-text-1" data-fill-palette-color="secondary" id="text-1"></path></svg></g></svg></g></svg></g></svg></g><g></g></svg></g></svg></g></svg></g></svg></g><defs></defs></svg><rect width="320" height="360" fill="none" stroke="none" visibility="hidden"></rect></g></svg></g></svg>